<svg width="109" height="113" viewBox="0 0 109 113" fill="none" xmlns="http://www.w3.org/2000/svg">
<path d="M23.0672 29.5198C23.2575 35.378 25.1515 41.1903 28.7508 46.1507C25.9393 45.956 23.0621 46.9302 20.9129 49.0794C16.9735 53.0209 16.9726 59.4119 20.9129 63.3528L21.2889 63.7103C25.1226 67.1736 30.9751 67.1727 34.8094 63.7103L35.1863 63.3528L40.3006 58.2376L51.0486 68.9798L51.0662 68.9612L52.3865 70.2767L47.2508 75.4153L46.7488 75.9046C36.1104 86.0154 19.287 85.8529 8.84843 75.4153C-1.75417 64.8109 -1.75416 47.6164 8.84843 37.012C12.8776 32.9833 17.8584 30.487 23.0672 29.5198ZM25.9363 29.1429C33.5721 28.5506 41.4106 31.1729 47.2508 37.012L54.3924 44.1536L54.407 44.138L67.7391 57.5452L67.7957 57.4915L73.6268 63.3226C73.7109 63.4068 73.7982 63.4871 73.8846 63.5677L74.9393 64.6224L75.4285 65.1234C80.2641 70.2113 82.7471 76.7151 82.8826 83.2581C75.5036 83.8323 67.9361 81.4037 62.1639 75.971L57.3855 71.1927L41.7801 55.638L53.0848 66.9427L39.5037 53.3675L33.8826 47.7405C28.7342 42.5919 26.0854 35.89 25.9363 29.1429ZM61.5623 36.9866C72.1668 26.3838 89.3603 26.3836 99.9646 36.9866C110.568 47.5911 110.568 64.7854 99.9646 75.39L99.4627 75.8792C95.5272 79.6198 90.7447 81.9518 85.7527 82.8802C85.5698 77.0254 83.6855 71.2152 80.0984 66.2532C82.8984 66.4371 85.7601 65.4626 87.9002 63.3226C91.84 59.3809 91.8412 52.9901 87.9002 49.0491C83.9591 45.1093 77.5681 45.1097 73.6268 49.0491L68.533 54.1419L67.8543 53.4642L67.7967 53.5179L56.4441 42.1019L61.5623 36.9866Z" fill="#007E64"/>
<path d="M72.2827 9.23951C61.6788 -1.36415 44.4864 -1.36643 33.882 9.23635C23.2776 19.8407 23.2777 37.0359 33.882 47.6403L41.7793 55.5377L57.3847 71.0925L62.8759 76.5838C66.8155 80.5252 66.8153 86.9182 62.8759 90.8597C58.9345 94.8004 52.5419 94.7995 48.6 90.8597L36.5344 102.922C47.1385 113.525 64.334 113.528 74.9383 102.925C85.5411 92.3214 85.5405 75.1256 74.9383 64.5214L67.8019 57.385L67.7388 57.445L51.4166 41.0312L51.4072 41.0407L45.9443 35.5779C42.0036 31.6361 42.0034 25.2436 45.9443 21.3019C49.8863 17.3607 56.2785 17.3604 60.2203 21.3019C63.0712 24.1545 63.8478 28.2872 62.5728 31.8486C67.7549 27.9505 73.9243 25.9773 80.1075 25.9311C79.5465 19.8406 76.9448 13.9027 72.2827 9.23951Z" fill="url(#paint0_radial_207_8183)"/>
<path d="M36.5344 102.922C47.1385 113.525 64.334 113.528 74.9383 102.925C85.5411 92.3214 85.5405 75.1256 74.9383 64.5214L67.8019 57.385L67.7388 57.445L51.4166 41.0312L51.4072 41.0407L45.9443 35.5779C42.0036 31.6361 42.0034 25.2436 45.9443 21.3019C49.8863 17.3607 56.2785 17.3604 60.2203 21.3019C63.0712 24.1545 63.8478 28.2872 62.5728 31.8486C67.7549 27.9505 73.9243 25.9773 80.1075 25.9311C79.5465 19.8406 76.9448 13.9027 72.2827 9.23951C61.6788 -1.36415 44.4864 -1.36643 33.882 9.23635C23.2776 19.8407 23.2777 37.0359 33.882 47.6403L53.0839 66.8423L41.7793 55.5377L57.3847 71.0925L62.8759 76.5838C66.8155 80.5252 66.8153 86.9182 62.8759 90.8597C58.9345 94.8004 52.5419 94.7995 48.6 90.8597M36.5344 102.922C40.987 98.4707 48.6 90.8597 48.6 90.8597M36.5344 102.922L48.6 90.8597" stroke="url(#paint1_radial_207_8183)" stroke-width="2.19181"/>
<defs>
<radialGradient id="paint0_radial_207_8183" cx="0" cy="0" r="1" gradientUnits="userSpaceOnUse" gradientTransform="translate(58.8976 57.4453) rotate(-3.89935) scale(31.7812 54.9224)">
<stop stop-color="#CCFFE8"/>
<stop offset="1" stop-color="#00B892"/>
</radialGradient>
<radialGradient id="paint1_radial_207_8183" cx="0" cy="0" r="1" gradientUnits="userSpaceOnUse" gradientTransform="translate(58.8976 57.4453) rotate(-3.89935) scale(31.7812 54.9224)">
<stop stop-color="#CCFFE8"/>
<stop offset="1" stop-color="#00B892"/>
</radialGradient>
</defs>
</svg>
